# xmcd CD database file
#
# Track frame offsets:
#	150
#	12271
#	26469
#	44597
#	67352
#	89213
#	117444
#	128431
#	142594
#	155604
#	166519
#	184201
#	212400
#	227447
#
# Disc length: 3197 seconds
#
# Revision: 0
# Processed by: cddbd v1.5PL3 Copyright (c) Steve Scherf et al.
# Submitted via: CDex 1.51
#
DISCID=b60c7b0e
DTITLE=Jumpin' Jive - Big Night Jive Orchestra
DYEAR=2003
DGENRE=Jazz
TTITLE0=As Time Goes By
TTITLE1=Kansas City
TTITLE2=Mambo Italiano
TTITLE3=Just a Gigolo-I Ani't Got Nobody
TTITLE4=Angelina-Zumma Zumma
TTITLE5=Stardust
TTITLE6=French Poodle
TTITLE7=Oh Marie
TTITLE8='Moody's Mood For Love
TTITLE9=Tu Vuò Fà l'Americano
TTITLE10=My Baby Just Cares For Me
TTITLE11=Dark Eyes
TTITLE12=Carina
TTITLE13=Volaree
EXTD=YEAR: 2003
EXTT0=
EXTT1=
EXTT2=
EXTT3=
EXTT4=
EXTT5=
EXTT6=
EXTT7=
EXTT8=
EXTT9=
EXTT10=
EXTT11=
EXTT12=
EXTT13=
PLAYORDER=
